<svg viewBox="0 0 24 24" fill="none" xmlns="http://www.w3.org/2000/svg">
  <defs>
    <linearGradient id="blueGradient" x1="0%" y1="0%" x2="100%" y2="100%">
      <stop offset="0%" stopColor="#0366D6" />
      <stop offset="100%" stopColor="#1F6FEB" />
    </linearGradient>
  </defs>

  <!-- Minimal Serif Letter A -->
  <!-- Left leg of A -->
  <path d="M6.5 20 L9 6 L12 6 L9 20 Z" fill="url(#blueGradient)" />

  <!-- Right leg of A -->
  <path d="M12 20 L14 6 L17.5 6 L12 20 Z" fill="url(#blueGradient)" />

  <!-- Crossbar of A with serif details -->
  <path d="M8 13 L16 13 L16 12 L8 12 Z" fill="url(#blueGradient)" />

  <!-- Top serif - left -->
  <path d="M9 6 L7.5 4.5 L10.5 4.5 L10.5 6 Z" fill="url(#blueGradient)" />

  <!-- Top serif - right -->
  <path d="M15 6 L13.5 4.5 L16.5 4.5 L16.5 6 Z" fill="url(#blueGradient)" />

  <!-- Bottom serif - left -->
  <path d="M9 20 L7.5 21 L8.5 21 L9.5 20 Z" fill="url(#blueGradient)" />

  <!-- Bottom serif - right -->
  <path d="M14 20 L13 21 L16 21 L17 20 Z" fill="url(#blueGradient)" />
</svg>
